<svg width="2483" height="901" viewBox="0 0 2483 901" fill="none" xmlns="http://www.w3.org/2000/svg">
<path d="M304.479 601.806C298.324 592.399 305.078 579.922 316.326 579.922H451.129C455.952 579.922 460.444 582.376 463.046 586.435L649.869 877.81C655.905 887.225 649.14 899.586 637.951 899.586H506.961C502.184 899.586 497.729 897.177 495.114 893.181L304.479 601.806Z" fill="white"/>
<path fill-rule="evenodd" clip-rule="evenodd" d="M67.7974 0H27.8903C12.4869 0 0 12.4889 0 27.8947V132.523C0 137.968 1.59287 143.293 4.58222 147.842L96.2215 287.316L160.559 391.261C165.643 399.475 174.614 404.474 184.273 404.474H286.524C308.846 404.474 322.123 379.552 309.673 361.021L269.846 301.741L269.629 301.886L205.545 206.034L166.505 147.925C165.937 147.081 165.419 146.209 164.95 145.314L67.7974 0ZM170.736 133.895H388.611C469.478 133.895 535.035 199.461 535.035 280.342C535.035 361.223 469.478 426.789 388.611 426.789H27.8903C12.4869 426.789 0 439.278 0 454.684V873.105C0 888.511 12.4869 901 27.8903 901H105.983C121.387 901 133.873 888.511 133.873 873.105V575.688C134.973 572.045 136.574 568.554 138.646 565.319C142.824 558.796 148.747 553.575 155.742 550.25C156.275 549.997 156.876 549.756 157.535 549.526H386.281C538.004 549.526 661 426.511 661 274.763C661 123.016 538.004 0 386.281 0H81.2179L170.736 133.895Z" fill="white"/>
<path d="M900.038 777.283C900.038 783.701 899.636 790.385 898.832 797.337H743.315C744.387 811.241 748.807 821.936 756.576 829.422C764.613 836.642 774.392 840.251 785.911 840.251C803.057 840.251 814.979 833.032 821.676 818.594H894.814C891.063 833.299 884.232 846.535 874.319 858.299C864.675 870.064 852.485 879.289 837.751 885.973C823.016 892.658 806.54 896 788.323 896C766.355 896 746.798 891.321 729.652 881.963C712.506 872.604 699.111 859.235 689.467 841.856C679.822 824.476 675 804.155 675 780.893C675 757.631 679.688 737.31 689.065 719.93C698.709 702.551 712.104 689.182 729.25 679.824C746.396 670.465 766.087 665.786 788.323 665.786C810.023 665.786 829.312 670.332 846.189 679.422C863.067 688.513 876.194 701.481 885.571 718.326C895.216 735.171 900.038 754.824 900.038 777.283ZM829.713 759.235C829.713 747.471 825.695 738.112 817.658 731.16C809.621 724.209 799.574 720.733 787.519 720.733C775.999 720.733 766.221 724.075 758.184 730.759C750.414 737.444 745.592 746.936 743.717 759.235H829.713Z" fill="white"/>
<path d="M1072.92 666.588C1099.17 666.588 1120.07 675.144 1135.61 692.257C1151.41 709.102 1159.32 732.364 1159.32 762.043V892.791H1091V771.267C1091 756.294 1087.12 744.663 1079.35 736.374C1071.58 728.086 1061.13 723.941 1048 723.941C1034.88 723.941 1024.43 728.086 1016.66 736.374C1008.89 744.663 1005.01 756.294 1005.01 771.267V892.791H936.289V668.995H1005.01V698.674C1011.97 688.781 1021.35 681.027 1033.14 675.412C1044.92 669.529 1058.18 666.588 1072.92 666.588Z" fill="white"/>
<path d="M1309.14 896C1287.17 896 1267.35 891.321 1249.67 881.963C1232.25 872.604 1218.46 859.235 1208.27 841.856C1198.36 824.476 1193.41 804.155 1193.41 780.893C1193.41 757.898 1198.5 737.711 1208.68 720.332C1218.86 702.684 1232.79 689.182 1250.47 679.824C1268.15 670.465 1287.98 665.786 1309.94 665.786C1331.91 665.786 1351.74 670.465 1369.42 679.824C1387.1 689.182 1401.03 702.684 1411.21 720.332C1421.39 737.711 1426.48 757.898 1426.48 780.893C1426.48 803.888 1421.26 824.209 1410.81 841.856C1400.63 859.235 1386.56 872.604 1368.61 881.963C1350.93 891.321 1331.11 896 1309.14 896ZM1309.14 836.642C1322.27 836.642 1333.39 831.829 1342.49 822.203C1351.87 812.578 1356.56 798.808 1356.56 780.893C1356.56 762.979 1352 749.209 1342.9 739.583C1334.05 729.957 1323.07 725.144 1309.94 725.144C1296.55 725.144 1285.43 729.957 1276.59 739.583C1267.75 748.941 1263.33 762.711 1263.33 780.893C1263.33 798.808 1267.62 812.578 1276.19 822.203C1285.03 831.829 1296.01 836.642 1309.14 836.642Z" fill="white"/>
<path d="M1563.8 828.62L1612.43 668.995H1685.56L1606 892.791H1521.21L1441.64 668.995H1515.18L1563.8 828.62Z" fill="white"/>
<path d="M1700.82 780.492C1700.82 757.497 1705.11 737.31 1713.68 719.93C1722.52 702.551 1734.45 689.182 1749.45 679.824C1764.45 670.465 1781.19 665.786 1799.68 665.786C1815.49 665.786 1829.28 668.995 1841.07 675.412C1853.13 681.829 1862.37 690.251 1868.8 700.679V668.995H1937.52V892.791H1868.8V861.107C1862.1 871.535 1852.72 879.957 1840.67 886.374C1828.88 892.791 1815.08 896 1799.28 896C1781.06 896 1764.45 891.321 1749.45 881.963C1734.45 872.337 1722.52 858.834 1713.68 841.455C1705.11 823.807 1700.82 803.487 1700.82 780.492ZM1868.8 780.893C1868.8 763.781 1863.98 750.278 1854.33 740.385C1844.96 730.492 1833.44 725.545 1819.77 725.545C1806.11 725.545 1794.46 730.492 1784.81 740.385C1775.44 750.011 1770.75 763.38 1770.75 780.492C1770.75 797.604 1775.44 811.241 1784.81 821.401C1794.46 831.294 1806.11 836.241 1819.77 836.241C1833.44 836.241 1844.96 831.294 1854.33 821.401C1863.98 811.508 1868.8 798.005 1868.8 780.893Z" fill="white"/>
<path d="M1973.57 780.492C1973.57 757.497 1977.85 737.31 1986.43 719.93C1995.27 702.551 2007.19 689.182 2022.19 679.824C2037.19 670.465 2053.94 665.786 2072.42 665.786C2087.16 665.786 2100.55 668.861 2112.61 675.011C2124.93 681.16 2134.58 689.449 2141.54 699.877V596H2210.26V892.791H2141.54V860.706C2135.11 871.401 2125.87 879.957 2113.81 886.374C2102.03 892.791 2088.23 896 2072.42 896C2053.94 896 2037.19 891.321 2022.19 881.963C2007.19 872.337 1995.27 858.834 1986.43 841.455C1977.85 823.807 1973.57 803.487 1973.57 780.492ZM2141.54 780.893C2141.54 763.781 2136.72 750.278 2127.07 740.385C2117.7 730.492 2106.18 725.545 2092.51 725.545C2078.85 725.545 2067.2 730.492 2057.55 740.385C2048.18 750.011 2043.49 763.38 2043.49 780.492C2043.49 797.604 2048.18 811.241 2057.55 821.401C2067.2 831.294 2078.85 836.241 2092.51 836.241C2106.18 836.241 2117.7 831.294 2127.07 821.401C2136.72 811.508 2141.54 798.005 2141.54 780.893Z" fill="white"/>
<path d="M2246.31 780.492C2246.31 757.497 2250.59 737.31 2259.17 719.93C2268.01 702.551 2279.93 689.182 2294.93 679.824C2309.94 670.465 2326.68 665.786 2345.16 665.786C2360.97 665.786 2374.77 668.995 2386.56 675.412C2398.61 681.829 2407.85 690.251 2414.28 700.679V668.995H2483V892.791H2414.28V861.107C2407.59 871.535 2398.21 879.957 2386.15 886.374C2374.37 892.791 2360.57 896 2344.76 896C2326.55 896 2309.94 891.321 2294.93 881.963C2279.93 872.337 2268.01 858.834 2259.17 841.455C2250.59 823.807 2246.31 803.487 2246.31 780.492ZM2414.28 780.893C2414.28 763.781 2409.46 750.278 2399.82 740.385C2390.44 730.492 2378.92 725.545 2365.26 725.545C2351.59 725.545 2339.94 730.492 2330.3 740.385C2320.92 750.011 2316.23 763.38 2316.23 780.492C2316.23 797.604 2320.92 811.241 2330.3 821.401C2339.94 831.294 2351.59 836.241 2365.26 836.241C2378.92 836.241 2390.44 831.294 2399.82 821.401C2409.46 811.508 2414.28 798.005 2414.28 780.893Z" fill="white"/>
</svg>
